<svg width="69" height="71" viewBox="0 0 69 71" fill="none" xmlns="http://www.w3.org/2000/svg">
<path d="M67.901 21.545C66.901 19.2402 65.701 17.1358 64.301 15.1316L58.701 22.3467C59.201 23.1484 59.601 24.0503 60.001 24.9522C60.601 26.3551 61.001 27.758 61.4011 29.161L69.0011 24.5513C68.701 23.5492 68.301 22.5471 67.901 21.545ZM51.9011 56.4179C50.1011 57.8209 48.001 59.0234 45.9011 59.9253C42.6011 61.3282 39.101 62.0297 35.501 62.0297C32.101 62.0297 28.701 61.4284 25.601 60.1257H10.401L10.501 60.2259C13.701 63.4326 17.501 66.038 21.701 67.8418C26.001 69.6456 30.701 70.6477 35.4011 70.6477C40.201 70.6477 44.8011 69.7458 49.1011 67.8418C53.0011 66.2384 56.501 63.9336 59.501 61.0276L51.9011 56.4179ZM49.201 2.80586C44.801 0.901885 40.201 0 35.4011 0C30.6011 0 26.001 0.901885 21.701 2.80586C17.501 4.60964 13.701 7.11487 10.501 10.4218C7.30105 13.6285 4.70105 17.4364 2.90105 21.6452C1.10105 25.9543 0.20105 30.5639 0.20105 35.2737C0.20105 40.0838 1.10105 44.6934 3.00105 49.1026C3.80105 50.9064 4.70105 52.7102 5.70105 54.3135L11.401 46.9982C11.201 46.5974 11.001 46.1966 10.8011 45.6955C9.40105 42.3886 8.70105 38.8813 8.70105 35.2737C8.70105 31.6662 9.40105 28.1589 10.8011 24.8519C12.1011 21.6452 14.101 18.8394 16.501 16.3341C19.001 13.8289 21.801 11.9249 25.001 10.6222C28.301 9.21927 31.8011 8.5178 35.4011 8.5178C38.701 8.5178 41.9011 9.11906 44.9011 10.2214H60.301C57.101 7.11487 53.4011 4.50943 49.201 2.80586Z" fill="white"/>
<path d="M23.3011 13.2276H62.1011L51.701 26.5555L26.8011 34.0712L40.4011 17.8372L28.9011 26.4553H12.701L23.3011 13.2276Z" fill="#7CD938"/>
<path d="M45.9011 57.2196H7.20105L20.701 39.8834L44.9011 34.0712L29.3011 53.9127L40.4011 43.992H56.501L45.9011 57.2196Z" fill="#7CD938"/>
</svg>
